<svg class="svg-icon" style="width: 1em;height: 1em;vertical-align: middle;fill: currentColor;overflow: hidden;" viewBox="0 0 1024 1024" version="1.1" xmlns="http://www.w3.org/2000/svg"><path d="M526.791111 1005.037037h-329.955555c-61.62963 0-111.691852-50.062222-111.691852-111.691852V246.518519c0-61.62963 50.062222-111.691852 111.691852-111.691852h145.066666c21.617778-57.457778 74.145185-132.740741 168.770371-132.740741 101.451852 0 147.152593 85.712593 164.598518 132.740741h132.361482c61.62963 0 111.691852 50.062222 111.691851 111.691852v376.794074c0 20.859259-17.066667 37.925926-37.925925 37.925926s-37.925926-17.066667-37.925926-37.925926V246.518519c0-19.721481-16.118519-35.84-35.84-35.84h-160.237037c-17.825185 0-33.185185-12.515556-36.977778-29.771852-0.948148-3.982222-24.082963-102.968889-99.745185-102.968889-80.213333 0-103.537778 101.831111-103.727408 102.968889a37.736296 37.736296 0 0 1-36.977778 29.771852h-173.131851c-19.721481 0-35.84 16.118519-35.84 35.84v646.637037c0 19.721481 16.118519 35.84 35.84 35.84h329.955555c20.859259 0 37.925926 17.066667 37.925926 37.925925s-17.066667 38.115556-37.925926 38.115556z" fill="#FF8206" /><path d="M545.754074 211.057778h-76.420741c-10.24 0-18.773333-8.343704-18.773333-18.773334v-0.568888c0-10.24 8.343704-18.773333 18.773333-18.773334h76.420741c10.24 0 18.773333 8.343704 18.773333 18.773334v0.568888c0 10.24-8.533333 18.773333-18.773333 18.773334zM754.346667 387.602963H260.740741c-10.24 0-18.773333-8.343704-18.773334-18.773333v-0.568889c0-10.24 8.343704-18.773333 18.773334-18.773334h493.605926c10.24 0 18.773333 8.343704 18.773333 18.773334v0.568889c0 10.42963-8.533333 18.773333-18.773333 18.773333zM754.346667 564.337778H260.740741c-10.24 0-18.773333-8.343704-18.773334-18.773334v-0.568888c0-10.24 8.343704-18.773333 18.773334-18.773334h493.605926c10.24 0 18.773333 8.343704 18.773333 18.773334v0.568888c0 10.42963-8.533333 18.773333-18.773333 18.773334zM521.481481 741.072593H255.620741c-10.24 0-18.773333-8.343704-18.773334-18.773334v-0.568889c0-10.24 8.343704-18.773333 18.773334-18.773333H521.481481c10.24 0 18.773333 8.343704 18.773334 18.773333v0.568889c0 10.24-8.343704 18.773333-18.773334 18.773334zM769.137778 987.780741c-3.982222 0-8.154074-1.327407-11.567408-3.982222l-104.485926-80.213334a18.811259 18.811259 0 0 1-3.413333-26.548148c6.447407-8.343704 18.204444-9.860741 26.548148-3.413333l89.884445 69.214815 156.065185-189.44a18.962963 18.962963 0 0 1 26.737778-2.654815 18.962963 18.962963 0 0 1 2.654814 26.737777l-167.632592 203.662223c-3.982222 4.171852-9.291852 6.637037-14.791111 6.637037z" fill="#FFAF28" /></svg>